<?xml version="1.0" standalone="no"?>
<!DOCTYPE svg PUBLIC "-//W3C//DTD SVG 20010904//EN"
 "http://www.w3.org/TR/2001/REC-SVG-20010904/DTD/svg10.dtd">
<svg version="1.0" xmlns="http://www.w3.org/2000/svg"
 width="153.000000pt" height="153.000000pt" viewBox="0 0 153.000000 153.000000"
 preserveAspectRatio="xMidYMid meet">
<metadata>
Created by potrace 1.11, written by Peter Selinger 2001-2013
</metadata>
<g transform="translate(0.000000,153.000000) scale(0.100000,-0.100000)"
fill="#000000" stroke="none">
<path d="M982 1471 c-27 -59 -45 -75 -354 -300 -131 -95 -238 -176 -238 -180
0 -4 10 -13 23 -18 21 -10 50 9 293 184 148 107 277 201 287 208 15 10 17 25
15 84 l-3 72 -23 -50z"/>
<path d="M747 1134 c-141 -102 -255 -190 -252 -195 4 -5 30 -20 58 -33 148
-68 403 -189 410 -196 13 -11 -164 -410 -182 -410 -14 0 -118 190 -167 303
-39 91 -42 122 -14 137 35 19 22 25 -55 25 -41 0 -75 -1 -75 -3 0 -2 17 -40
39 -85 21 -46 62 -139 91 -207 61 -143 157 -330 170 -330 13 0 151 276 200
399 l33 83 38 -223 c22 -123 39 -237 39 -252 0 -46 -27 -92 -67 -111 -46 -22
-36 -30 30 -27 28 2 70 4 92 5 39 1 40 2 40 36 -1 62 -9 103 -80 445 -14 66
-25 138 -26 160 0 22 -4 48 -8 59 -6 15 -248 137 -428 217 -18 7 -33 16 -33
19 0 5 148 114 269 197 79 55 133 69 145 38 17 -46 24 28 8 80 -1 3 -2 16 -2
30 0 14 -3 25 -7 24 -5 0 -124 -83 -266 -185z"/>
<path d="M252 768 c2 -4 23 -18 47 -30 24 -13 49 -31 55 -40 10 -17 -8 -137
-45 -288 -10 -41 -20 -86 -23 -100 -33 -178 -53 -239 -91 -272 -14 -12 -25
-24 -25 -27 0 -3 54 -6 120 -6 66 0 120 3 120 8 0 4 -4 8 -10 8 -15 2 -22 4
-52 17 -55 23 -52 99 15 367 19 77 38 158 42 180 7 39 8 37 54 -95 66 -189
208 -480 233 -480 5 0 16 15 25 34 16 34 15 35 -23 103 -65 112 -118 229 -182
401 -90 238 -76 220 -177 224 -47 2 -84 0 -83 -4z"/>
<path d="M1193 773 l-83 -4 0 -47 c0 -54 18 -153 61 -337 37 -158 59 -278 59
-326 0 -24 5 -39 16 -43 26 -10 124 -7 124 4 0 6 -6 10 -13 10 -23 0 -55 43
-70 95 -23 76 -98 444 -101 497 -4 59 16 100 60 124 19 10 34 22 34 26 0 5 -1
7 -2 6 -2 -1 -40 -4 -85 -5z"/>
</g>
</svg>
