<?xml version="1.0" standalone="no"?>
<!DOCTYPE svg PUBLIC "-//W3C//DTD SVG 20010904//EN"
 "http://www.w3.org/TR/2001/REC-SVG-20010904/DTD/svg10.dtd">
<svg version="1.0" xmlns="http://www.w3.org/2000/svg"
 width="256.000000pt" height="256.000000pt" viewBox="0 0 256.000000 256.000000"
 preserveAspectRatio="xMidYMid meet">
<metadata>
Created by potrace 1.11, written by Peter Selinger 2001-2013
</metadata>
<g transform="translate(0.000000,256.000000) scale(0.100000,-0.100000)"
fill="#000000" stroke="none">
<path d="M1665 2552 c-6 -4 -12 -16 -13 -27 -13 -72 -109 -187 -221 -263 -34
-23 -68 -47 -74 -53 -10 -9 -303 -222 -540 -392 -154 -111 -186 -138 -181
-151 8 -21 82 -48 97 -36 24 20 104 77 187 135 47 32 90 64 96 69 6 6 21 18
33 26 12 8 55 39 94 68 40 29 94 69 122 88 27 19 73 51 100 71 28 21 111 81
186 135 l135 97 -1 115 c-1 64 -4 118 -6 120 -3 3 -9 2 -14 -2z"/>
<path d="M1678 2232 c-1 -4 -43 -36 -92 -70 -48 -35 -93 -68 -100 -73 -12 -11
-149 -108 -174 -124 -8 -5 -23 -16 -31 -22 -23 -18 -287 -208 -378 -273 -76
-53 -102 -77 -103 -92 0 -5 5 -8 10 -8 10 0 103 -43 295 -136 55 -27 102 -49
105 -49 5 -1 85 -39 260 -124 58 -28 110 -51 117 -51 27 0 23 -27 -22 -133
-164 -387 -260 -577 -280 -555 -21 23 -125 201 -125 214 0 7 -4 14 -9 16 -19
7 -177 350 -188 408 -2 13 -6 26 -8 29 -7 6 25 61 35 62 6 1 16 2 22 3 7 0 14
9 16 19 3 15 -7 17 -105 18 -59 0 -118 2 -130 5 -13 2 -23 0 -23 -6 0 -11 27
-72 99 -222 28 -59 51 -110 51 -113 0 -2 12 -30 26 -62 35 -77 70 -162 74
-178 3 -9 171 -343 202 -400 31 -56 45 -74 59 -75 18 0 236 426 301 590 16 41
35 89 43 105 7 17 18 45 25 63 14 35 22 35 26 -1 1 -12 3 -22 4 -22 1 0 3 -13
5 -30 2 -16 7 -48 10 -70 4 -22 8 -50 10 -62 2 -12 6 -34 9 -50 4 -15 9 -41
12 -58 2 -16 11 -66 20 -110 8 -44 17 -100 20 -125 3 -24 8 -48 11 -53 13 -21
20 -181 10 -222 -3 -11 -6 -25 -6 -31 -2 -28 -131 -134 -131 -108 0 4 -6 1
-14 -6 -25 -20 -8 -41 27 -34 18 3 88 7 157 9 69 2 131 4 138 5 10 0 11 13 7
53 -4 28 -8 66 -10 82 -6 56 -27 190 -31 196 -2 4 -6 24 -9 45 -4 22 -8 47
-11 56 -3 10 -7 30 -10 45 -3 16 -7 35 -9 43 -3 8 -7 33 -11 55 -3 22 -8 43
-10 46 -2 3 -6 20 -9 38 -3 18 -14 70 -24 114 -31 136 -35 158 -51 310 -5 55
-8 102 -6 106 3 4 -19 17 -47 30 -29 13 -135 65 -237 114 -102 50 -187 91
-190 92 -14 4 -67 29 -183 84 -113 54 -147 81 -102 81 7 0 15 4 17 8 2 5 30
28 63 52 71 52 182 133 282 207 39 29 74 53 78 53 3 0 21 11 38 24 83 64 168
77 189 30 6 -13 15 -24 20 -24 4 0 11 0 16 0 9 0 10 17 0 63 -9 39 -20 148
-20 179 1 19 -14 33 -20 20z"/>
<path d="M397 1303 c-8 -13 5 -27 28 -31 31 -6 91 -39 129 -72 37 -33 38 -45
20 -155 -4 -27 -9 -57 -9 -65 -1 -8 -7 -33 -13 -55 -6 -22 -14 -57 -16 -77 -3
-20 -12 -60 -20 -89 -9 -30 -18 -69 -21 -88 -3 -19 -8 -37 -10 -41 -2 -4 -7
-22 -10 -41 -3 -19 -12 -61 -21 -94 -8 -33 -17 -76 -20 -95 -2 -19 -7 -46 -11
-60 -3 -14 -7 -27 -8 -30 0 -3 -5 -23 -10 -45 -10 -46 -12 -53 -15 -60 -1 -3
-3 -8 -4 -12 -6 -31 -56 -109 -81 -126 -32 -23 -46 -38 -40 -47 2 -3 79 -5
172 -4 92 1 177 -2 189 -7 11 -4 27 -4 34 1 21 13 3 40 -26 40 -41 0 -104 40
-119 77 -14 32 -13 150 0 218 6 29 43 187 51 215 27 102 85 348 95 401 7 38
15 69 18 69 3 0 30 -73 60 -162 57 -169 80 -233 112 -305 11 -24 19 -45 19
-49 0 -11 115 -239 123 -242 4 -2 7 -12 7 -22 0 -10 5 -22 10 -25 6 -4 17 -21
25 -38 20 -43 65 -119 90 -153 l21 -27 37 62 37 62 -20 37 c-12 20 -34 60 -51
87 -16 28 -51 93 -77 145 -26 52 -50 97 -53 100 -8 7 -110 252 -149 360 -45
122 -101 269 -118 310 -9 19 -16 40 -18 45 -1 6 -10 26 -21 45 l-20 35 -79 1
c-43 1 -109 5 -146 9 -36 3 -69 2 -71 -2z"/>
<path d="M2015 1301 c-2 -2 -43 -4 -91 -4 l-86 -1 7 -85 c3 -47 7 -93 7 -101
0 -8 5 -35 10 -60 6 -25 12 -60 13 -78 2 -18 6 -36 9 -40 3 -5 8 -24 11 -43
11 -69 18 -100 50 -229 15 -58 28 -114 31 -125 3 -17 11 -52 20 -87 1 -5 2 -9
4 -10 1 -2 3 -12 4 -23 2 -11 7 -40 11 -65 4 -25 9 -57 11 -72 2 -16 6 -43 9
-60 3 -18 8 -67 11 -108 3 -41 7 -76 8 -77 1 -1 46 -5 100 -8 53 -4 106 -8
117 -10 13 -3 19 2 19 16 0 17 -10 23 -32 20 -19 -2 -88 83 -102 126 -15 47
-61 248 -72 321 -3 20 -8 40 -10 43 -2 4 -6 24 -10 45 -3 22 -17 86 -30 144
-14 58 -27 116 -29 130 -2 14 -9 50 -15 80 -18 86 -19 191 -2 225 22 45 71 93
109 106 55 18 42 38 -23 36 -30 -1 -57 -4 -59 -6z"/>
</g>
</svg>
