<?xml version="1.0" standalone="no"?>
<!DOCTYPE svg PUBLIC "-//W3C//DTD SVG 20010904//EN"
 "http://www.w3.org/TR/2001/REC-SVG-20010904/DTD/svg10.dtd">
<svg version="1.0" xmlns="http://www.w3.org/2000/svg"
 width="377.000000pt" height="377.000000pt" viewBox="0 0 377.000000 377.000000"
 preserveAspectRatio="xMidYMid meet">
<metadata>
Created by potrace 1.11, written by Peter Selinger 2001-2013
</metadata>
<g transform="translate(0.000000,377.000000) scale(0.100000,-0.100000)"
fill="#000000" stroke="none">
<path d="M2426 3700 c-37 -122 -140 -241 -323 -372 -88 -64 -409 -297 -993
-722 -91 -66 -168 -124 -172 -130 -12 -19 11 -43 64 -66 45 -19 55 -21 74 -9
20 12 123 86 313 225 49 36 474 343 841 608 278 200 262 187 256 219 -3 16 -6
92 -6 168 0 127 -2 139 -18 139 -14 0 -23 -15 -36 -60z"/>
<path d="M2363 3202 c-67 -48 -206 -148 -310 -223 -537 -387 -705 -508 -779
-560 -123 -88 -123 -81 -8 -135 55 -25 182 -85 284 -134 102 -48 257 -122 345
-163 88 -41 216 -102 285 -135 69 -33 142 -67 163 -75 l38 -16 -15 -33 c-23
-55 -135 -317 -176 -413 -102 -241 -273 -570 -290 -560 -14 8 -168 270 -248
420 -74 140 -203 428 -232 519 -14 45 -8 101 16 127 9 10 32 23 50 29 23 8 34
18 34 31 0 18 -9 19 -137 19 -76 1 -161 3 -190 5 -28 3 -54 1 -58 -4 -3 -5 15
-52 39 -103 24 -51 68 -145 98 -208 30 -63 80 -173 111 -245 30 -71 83 -195
117 -275 70 -162 157 -340 256 -523 89 -163 113 -199 127 -194 14 4 43 53 162
273 134 247 259 521 373 813 42 110 41 110 67 -74 15 -108 52 -320 81 -460 12
-61 34 -182 65 -365 16 -97 14 -220 -5 -277 -23 -69 -81 -133 -147 -162 -82
-35 -84 -37 -84 -57 0 -16 7 -19 40 -18 298 11 446 18 455 24 18 11 -20 305
-71 550 -17 80 -41 197 -54 260 -13 63 -34 158 -45 210 -73 330 -94 460 -105
633 -7 98 -10 109 -29 117 -23 9 -137 63 -506 240 -231 111 -326 156 -532 252
-49 23 -88 45 -88 49 0 5 10 14 23 20 12 7 49 33 83 58 33 25 116 87 184 136
68 50 167 122 219 161 242 178 356 244 424 244 50 0 70 -12 96 -55 11 -19 28
-35 37 -35 14 0 15 9 9 63 -3 34 -10 85 -15 112 -5 28 -12 87 -15 133 -4 45
-10 84 -14 86 -3 2 -61 -35 -128 -82z"/>
<path d="M584 1915 c-9 -22 1 -29 63 -49 58 -19 156 -80 192 -120 20 -21 24
-35 22 -74 -5 -104 -51 -349 -121 -642 -41 -172 -65 -281 -90 -400 -37 -176
-43 -205 -63 -280 -35 -134 -100 -241 -167 -273 -17 -8 -25 -20 -25 -37 0 -24
2 -25 55 -20 30 3 118 5 195 5 77 0 185 -2 240 -5 96 -5 100 -4 103 16 3 18
-6 23 -65 38 -87 21 -139 56 -164 109 -44 97 -14 317 105 767 40 149 97 398
116 503 7 37 16 67 20 67 4 0 44 -108 89 -240 121 -359 191 -529 326 -797 68
-132 132 -254 143 -270 11 -15 41 -65 67 -110 26 -46 51 -83 56 -83 8 0 38 44
96 140 l21 35 -35 60 c-210 353 -345 637 -483 1015 -80 219 -199 518 -231 581
l-28 56 -183 7 c-101 3 -198 9 -215 12 -25 5 -34 2 -39 -11z"/>
<path d="M3025 1920 c-38 -4 -125 -8 -192 -9 l-123 -1 0 -52 c0 -156 76 -586
160 -908 77 -293 121 -533 144 -780 l11 -125 118 -6 c65 -4 143 -10 173 -14
53 -6 54 -6 54 20 0 20 -6 27 -30 32 -46 9 -124 84 -149 143 -25 59 -56 170
-76 280 -19 99 -87 425 -120 570 -74 331 -98 493 -85 574 17 104 84 191 176
225 34 13 50 25 52 40 4 23 7 23 -113 11z"/>
</g>
</svg>
